<svg width="1600" height="1000" viewBox="0 0 1600 1000" fill="none" xmlns="http://www.w3.org/2000/svg">
  <rect width="1600" height="1000" rx="48" fill="#06101C"/>
  <rect x="44" y="44" width="1512" height="912" rx="36" stroke="#38BDF8" stroke-opacity="0.16" stroke-width="2"/>
  <rect x="154" y="128" width="480" height="744" rx="48" fill="url(#paint0_linear)" stroke="#38BDF8" stroke-opacity="0.18"/>
  <rect x="718" y="176" width="730" height="174" rx="32" fill="#0C1629" stroke="#38BDF8" stroke-opacity="0.12"/>
  <rect x="718" y="396" width="730" height="476" rx="32" fill="#0C1629" stroke="#38BDF8" stroke-opacity="0.12"/>
  <rect x="252" y="232" width="284" height="32" rx="16" fill="#38BDF8" fill-opacity="0.42"/>
  <rect x="252" y="286" width="196" height="18" rx="9" fill="#94A3B8" fill-opacity="0.22"/>
  <rect x="220" y="358" width="348" height="220" rx="28" fill="#0EA5E9" fill-opacity="0.12"/>
  <rect x="220" y="612" width="348" height="34" rx="17" fill="#38BDF8" fill-opacity="0.18"/>
  <rect x="220" y="666" width="276" height="18" rx="9" fill="#94A3B8" fill-opacity="0.2"/>
  <rect x="776" y="230" width="192" height="18" rx="9" fill="#38BDF8" fill-opacity="0.42"/>
  <rect x="776" y="268" width="276" height="18" rx="9" fill="#94A3B8" fill-opacity="0.22"/>
  <rect x="776" y="450" width="280" height="18" rx="9" fill="#38BDF8" fill-opacity="0.42"/>
  <rect x="776" y="490" width="540" height="18" rx="9" fill="#94A3B8" fill-opacity="0.22"/>
  <rect x="776" y="544" width="612" height="72" rx="24" fill="#0EA5E9" fill-opacity="0.12"/>
  <rect x="776" y="652" width="612" height="72" rx="24" fill="#38BDF8" fill-opacity="0.09"/>
  <text x="154" y="92" fill="#E2E8F0" font-family="Arial, sans-serif" font-size="34" font-weight="700">PULSE BOOKING</text>
  <defs>
    <linearGradient id="paint0_linear" x1="394" y1="128" x2="394" y2="872" gradientUnits="userSpaceOnUse">
      <stop stop-color="#0F223C"/>
      <stop offset="1" stop-color="#09111E"/>
    </linearGradient>
  </defs>
</svg>
